<mxfile host="Electron" modified="2024-04-14T16:12:22.109Z" agent="Mozilla/5.0 (Windows NT 10.0; Win64; x64) AppleWebKit/537.36 (KHTML, like Gecko) draw.io/24.1.0 Chrome/120.0.6099.109 Electron/28.1.0 Safari/537.36" etag="U3MlUicePxi_SPOKOVbr" version="24.1.0" type="device">
  <diagram name="第 1 页" id="T6yCZTRlYFAvDMCStZem">
    <mxGraphModel dx="1050" dy="621" grid="1" gridSize="10" guides="1" tooltips="1" connect="1" arrows="1" fold="1" page="1" pageScale="1" pageWidth="827" pageHeight="1169" math="0" shadow="0">
      <root>
        <mxCell id="0" />
        <mxCell id="1" parent="0" />
        <mxCell id="3-nPfXsIJvISnCRN0Pmk-2" style="edgeStyle=none;rounded=0;orthogonalLoop=1;jettySize=auto;html=1;exitX=0.5;exitY=1;exitDx=0;exitDy=0;entryX=0.5;entryY=0;entryDx=0;entryDy=0;strokeColor=default;align=center;verticalAlign=middle;fontFamily=Helvetica;fontSize=11;fontColor=default;labelBackgroundColor=default;endArrow=none;endFill=0;" edge="1" parent="1" source="3-nPfXsIJvISnCRN0Pmk-3" target="3-nPfXsIJvISnCRN0Pmk-6">
          <mxGeometry relative="1" as="geometry" />
        </mxCell>
        <mxCell id="3-nPfXsIJvISnCRN0Pmk-3" value="Amd" style="rounded=0;whiteSpace=wrap;html=1;" vertex="1" parent="1">
          <mxGeometry x="260" y="280" width="80" height="50" as="geometry" />
        </mxCell>
        <mxCell id="3-nPfXsIJvISnCRN0Pmk-4" style="rounded=0;orthogonalLoop=1;jettySize=auto;html=1;exitX=0.5;exitY=1;exitDx=0;exitDy=0;entryX=0;entryY=0;entryDx=0;entryDy=0;endArrow=none;endFill=0;" edge="1" parent="1" source="3-nPfXsIJvISnCRN0Pmk-5" target="3-nPfXsIJvISnCRN0Pmk-3">
          <mxGeometry relative="1" as="geometry" />
        </mxCell>
        <mxCell id="3-nPfXsIJvISnCRN0Pmk-5" value="&lt;span style=&quot;color: rgb(6, 6, 7); font-family: -apple-system, blinkmacsystemfont, &amp;quot;Helvetica Neue&amp;quot;, helvetica, &amp;quot;segoe ui&amp;quot;, arial, roboto, &amp;quot;PingFang SC&amp;quot;, miui, &amp;quot;Hiragino Sans GB&amp;quot;, &amp;quot;Microsoft Yahei&amp;quot;, sans-serif; font-size: 14px; letter-spacing: 0.5px; text-align: left; background-color: rgb(255, 255, 255);&quot;&gt;AmdID&lt;/span&gt;" style="rounded=1;whiteSpace=wrap;html=1;" vertex="1" parent="1">
          <mxGeometry x="190" y="200" width="80" height="30" as="geometry" />
        </mxCell>
        <mxCell id="3-nPfXsIJvISnCRN0Pmk-6" value="&lt;span style=&quot;color: rgb(6, 6, 7); font-family: -apple-system, blinkmacsystemfont, &amp;quot;Helvetica Neue&amp;quot;, helvetica, &amp;quot;segoe ui&amp;quot;, arial, roboto, &amp;quot;PingFang SC&amp;quot;, miui, &amp;quot;Hiragino Sans GB&amp;quot;, &amp;quot;Microsoft Yahei&amp;quot;, sans-serif; font-size: 14px; letter-spacing: 0.5px; text-align: left; background-color: rgb(255, 255, 255);&quot;&gt;Name&lt;/span&gt;" style="rounded=1;whiteSpace=wrap;html=1;" vertex="1" parent="1">
          <mxGeometry x="260" y="390" width="80" height="30" as="geometry" />
        </mxCell>
        <mxCell id="3-nPfXsIJvISnCRN0Pmk-10" value="&lt;div style=&quot;text-align: left;&quot;&gt;&lt;font face=&quot;-apple-system, blinkmacsystemfont, Helvetica Neue, helvetica, segoe ui, arial, roboto, PingFang SC, miui, Hiragino Sans GB, Microsoft Yahei, sans-serif&quot; color=&quot;#060607&quot;&gt;&lt;span style=&quot;font-size: 14px; letter-spacing: 0.5px; background-color: rgb(255, 255, 255);&quot;&gt;Password&lt;/span&gt;&lt;/font&gt;&lt;/div&gt;" style="rounded=1;whiteSpace=wrap;html=1;" vertex="1" parent="1">
          <mxGeometry x="340" y="200" width="80" height="30" as="geometry" />
        </mxCell>
        <mxCell id="3-nPfXsIJvISnCRN0Pmk-11" style="rounded=0;orthogonalLoop=1;jettySize=auto;html=1;exitX=0.75;exitY=0;exitDx=0;exitDy=0;entryX=0.5;entryY=1;entryDx=0;entryDy=0;endArrow=none;endFill=0;" edge="1" parent="1" source="3-nPfXsIJvISnCRN0Pmk-3" target="3-nPfXsIJvISnCRN0Pmk-10">
          <mxGeometry relative="1" as="geometry" />
        </mxCell>
      </root>
    </mxGraphModel>
  </diagram>
</mxfile>
